<?xml version="1.0" encoding="UTF-8" standalone="no"?>
<svg
   xmlns:dc="http://purl.org/dc/elements/1.1/"
   xmlns:cc="http://creativecommons.org/ns#"
   xmlns:rdf="http://www.w3.org/1999/02/22-rdf-syntax-ns#"
   xmlns:svg="http://www.w3.org/2000/svg"
   xmlns="http://www.w3.org/2000/svg"
   xmlns:sodipodi="http://sodipodi.sourceforge.net/DTD/sodipodi-0.dtd"
   xmlns:inkscape="http://www.inkscape.org/namespaces/inkscape"
   width="72"
   height="72"
   viewBox="0 0 72 72"
   version="1.1"
   id="svg9"
   sodipodi:docname="icon3-1.svg"
   inkscape:version="1.0 (4035a4fb49, 2020-05-01)">
  <metadata
     id="metadata13">
    <rdf:RDF>
      <cc:Work
         rdf:about="">
        <dc:format>image/svg+xml</dc:format>
        <dc:type
           rdf:resource="http://purl.org/dc/dcmitype/StillImage" />
        <dc:title></dc:title>
      </cc:Work>
    </rdf:RDF>
  </metadata>
  <sodipodi:namedview
     inkscape:document-rotation="0"
     pagecolor="#ffffff"
     bordercolor="#666666"
     borderopacity="1"
     objecttolerance="10"
     gridtolerance="10"
     guidetolerance="10"
     inkscape:pageopacity="0"
     inkscape:pageshadow="2"
     inkscape:window-width="1920"
     inkscape:window-height="1017"
     id="namedview11"
     showgrid="false"
     inkscape:zoom="11.805556"
     inkscape:cx="42.803098"
     inkscape:cy="40.974609"
     inkscape:window-x="-8"
     inkscape:window-y="-8"
     inkscape:window-maximized="1"
     inkscape:current-layer="svg9" />
  <defs
     id="defs5">
    <clipPath
       id="clip-icon3">
      <rect
         width="72"
         height="72"
         id="rect2" />
    </clipPath>
  </defs>
  <g
     id="icon3"
     clip-path="url(#clip-icon3)"
     style="fill-opacity:1;fill:#1951d1">
    <path
       id="Financial_ícones_-_Download_Gratuito_em_PNG_e_SVG-14_1_"
       data-name="Financial ícones - Download Gratuito em PNG e SVG-14 (1)"
       d="M19.48,1a5.476,5.476,0,0,0-5.157,3.662H6.662A3.661,3.661,0,0,0,3,8.324V33.96a3.661,3.661,0,0,0,3.662,3.662H19.48V21.142a5.493,5.493,0,0,1,5.493-5.493H35.96V8.324A3.661,3.661,0,0,0,32.3,4.662H24.637A5.476,5.476,0,0,0,19.48,1Zm0,3.662a1.831,1.831,0,1,1-1.831,1.831A1.832,1.832,0,0,1,19.48,4.662Zm5.493,14.649a1.832,1.832,0,0,0-1.831,1.831V41.284a1.832,1.832,0,0,0,1.831,1.831H39.622a1.832,1.832,0,0,0,1.831-1.831V21.142a1.832,1.832,0,0,0-1.831-1.831ZM26.8,22.973H37.791v3.662H26.8ZM28.635,30.3A1.831,1.831,0,1,1,26.8,32.129,1.832,1.832,0,0,1,28.635,30.3Zm7.324,0a1.831,1.831,0,1,1-1.831,1.831A1.832,1.832,0,0,1,35.96,30.3Zm-7.324,5.493A1.831,1.831,0,1,1,26.8,37.622,1.832,1.832,0,0,1,28.635,35.791Zm7.324,0a1.831,1.831,0,1,1-1.831,1.831A1.832,1.832,0,0,1,35.96,35.791Z"
       transform="translate(14.523 14.191)"
       style="fill-opacity:1;fill:#1951d1" />
  </g>
</svg>
