<svg xmlns="http://www.w3.org/2000/svg" xmlns:xlink="http://www.w3.org/1999/xlink" width="72" height="72" viewBox="0 0 72 72">
  <defs>
    <clipPath id="clip-icon4">
      <rect width="72" height="72"/>
    </clipPath>
  </defs>
  <g id="icon4" clip-path="url(#clip-icon4)">
    <path id="Academic_ícones_-_Download_Gratuito_em_PNG_e_SVG-14" data-name="Academic ícones - Download Gratuito em PNG e SVG-14" d="M23.307,4a6.556,6.556,0,1,0,6.556,6.556A6.556,6.556,0,0,0,23.307,4ZM11.014,8.917a5.736,5.736,0,1,0,5.1,8.313,9.773,9.773,0,0,1-2.587-7.711A5.679,5.679,0,0,0,11.014,8.917Zm24.585,0a5.679,5.679,0,0,0-2.513.6,9.875,9.875,0,0,1,.054,1.037A9.776,9.776,0,0,1,30.5,17.23a5.727,5.727,0,1,0,5.1-8.313ZM23.307,20.39a9.833,9.833,0,0,0-9.834,9.834V33.5h8.291A14.743,14.743,0,0,1,29.139,22.32,9.77,9.77,0,0,0,23.307,20.39ZM11.014,23.668A9.013,9.013,0,0,0,2,32.682V33.5h8.195V30.224a13,13,0,0,1,1.761-6.508A9.4,9.4,0,0,0,11.014,23.668Zm25.4,0A11.473,11.473,0,1,0,47.891,35.14,11.473,11.473,0,0,0,36.418,23.668Zm4.917,6.556a1.639,1.639,0,0,1,1.159,2.8l-6.556,6.556a1.638,1.638,0,0,1-2.318,0L30.343,36.3a1.639,1.639,0,0,1,2.318-2.318L34.779,36.1l5.4-5.4A1.633,1.633,0,0,1,41.335,30.224Z" transform="translate(11.055 10.693)" fill="#ccd1e0"/>
  </g>
</svg>
