<svg xmlns="http://www.w3.org/2000/svg" xmlns:xlink="http://www.w3.org/1999/xlink" width="559" height="115" viewBox="0 0 559 115">
  <defs>
    <clipPath id="clip-Marca_Aplicação">
      <rect width="559" height="115"/>
    </clipPath>
  </defs>
  <g id="Marca_Aplicação" data-name="Marca Aplicação" clip-path="url(#clip-Marca_Aplicação)">
    <path id="Marie_Winter" data-name="Marie Winter" d="M35.329,0V-18.326H17.787v5.292H28.861c-.735,4.557-3.773,7.742-9.408,7.742a9.838,9.838,0,0,1-7.6-3.283A12.309,12.309,0,0,1,8.82-17.15a12.033,12.033,0,0,1,3.234-8.771A10.527,10.527,0,0,1,19.943-29.3a11.189,11.189,0,0,1,10.241,6.223l4.851-3.528c-2.6-5.1-8.281-8.379-14.994-8.379A17.5,17.5,0,0,0,7.4-29.89,17.1,17.1,0,0,0,2.254-17.15,17.8,17.8,0,0,0,7.105-4.312a16.335,16.335,0,0,0,12.152,5c4.7,0,8.183-1.813,10.437-5.39L31.066,0Zm29.2-12.838A12.1,12.1,0,0,0,61.2-21.56a11.261,11.261,0,0,0-8.526-3.43,12.689,12.689,0,0,0-9.114,3.626,12.291,12.291,0,0,0-3.675,9.212,12.554,12.554,0,0,0,3.626,9.261A12.162,12.162,0,0,0,52.381.686c5.341,0,9.114-2.352,11.417-7.1L59.192-9.065c-1.519,2.989-3.724,4.459-6.713,4.459a6.392,6.392,0,0,1-6.664-6.076H64.533ZM52.479-20.286a6.008,6.008,0,0,1,6.37,5.1H45.815A7.087,7.087,0,0,1,52.479-20.286Zm22,1.96c0-1.421,1.225-2.156,3.675-2.156,2.5,0,4.361,1.421,5.488,4.263L88.1-18.865c-2.009-4.165-4.9-6.125-10.045-6.125a10.7,10.7,0,0,0-6.419,1.911,5.91,5.91,0,0,0-2.646,5.145c0,4.116,3.381,6.615,8.477,7.6C81.193-9.6,82.663-8.82,82.663-7.2s-1.813,2.7-3.822,2.7c-2.989,0-5.145-2.058-6.272-5.243L67.62-6.615A11.4,11.4,0,0,0,78.743.686a10.184,10.184,0,0,0,6.958-2.3A7.344,7.344,0,0,0,88.347-7.4c0-4.116-2.45-6.272-8.134-7.5C76.391-15.631,74.48-16.807,74.48-18.326Zm20.139-.98v12.25c0,5.145,2.6,7.742,7.791,7.742A12.5,12.5,0,0,0,106.526,0l-.588-5.1a6.964,6.964,0,0,1-2.058.294c-2.058,0-3.087-1.127-3.087-3.43V-19.306h5.292v-5h-5.292V-30.87H94.619V-24.3H90.846v5ZM133.574,0a10.414,10.414,0,0,1-1.617-6.027V-16.17c0-5.88-3.724-8.82-10.633-8.82a11.812,11.812,0,0,0-7.448,2.2,6.543,6.543,0,0,0-2.793,5.243,4.851,4.851,0,0,0,.441,2.058l5.537-1.862a1.827,1.827,0,0,1-.1-.588c0-1.617,1.617-2.744,4.361-2.744,2.989,0,4.459,1.225,4.459,3.675v.931l-7.3,1.127c-5.047.784-8.673,3.381-8.673,8.036,0,4.557,3.332,7.595,8.183,7.595a8.7,8.7,0,0,0,8.134-4.557A5.981,5.981,0,0,0,127.3,0ZM119.462-4.312c-2.205,0-3.626-1.029-3.626-2.94s1.372-3.136,4.067-3.577l5.88-.98v.441C125.783-6.86,123.235-4.312,119.462-4.312ZM117.7-30.331c1.764,0,3.43,3.234,7.448,3.234a4.5,4.5,0,0,0,4.8-4.459,4.53,4.53,0,0,0-.686-2.6l-3.626.735a2.624,2.624,0,0,1,.343,1.274,1.1,1.1,0,0,1-1.127,1.078,4.6,4.6,0,0,1-2.842-1.617A6.874,6.874,0,0,0,117.4-34.3a4.522,4.522,0,0,0-4.8,4.459,4.879,4.879,0,0,0,.686,2.6l3.626-.735C116.277-29.4,116.62-30.331,117.7-30.331Zm41.748,8.771a13.631,13.631,0,0,0-9.359-3.43,13.594,13.594,0,0,0-9.31,3.43c-2.6,2.254-3.92,5.39-3.92,9.408a11.986,11.986,0,0,0,3.92,9.457,13.789,13.789,0,0,0,9.31,3.381,13.826,13.826,0,0,0,9.359-3.381,11.863,11.863,0,0,0,3.969-9.457Q163.415-18.179,159.446-21.56ZM145.187-7.007a6.828,6.828,0,0,1-2.058-5.145,6.646,6.646,0,0,1,2.058-5.1,6.767,6.767,0,0,1,4.9-1.96,6.879,6.879,0,0,1,4.949,1.96,6.513,6.513,0,0,1,2.107,5.1,6.69,6.69,0,0,1-2.107,5.145A7.044,7.044,0,0,1,150.087-5.1,6.927,6.927,0,0,1,145.187-7.007ZM199.871-34.3v12.985q-2.278-3.675-7.644-3.675a11.607,11.607,0,0,0-8.379,3.528,12.4,12.4,0,0,0-3.577,9.31c0,3.92,1.127,7.056,3.43,9.359A11.6,11.6,0,0,0,192.227.686a8.628,8.628,0,0,0,7.644-4.116V0h6.174V-34.3ZM188.454-7.105a7.033,7.033,0,0,1-1.911-5.047,6.953,6.953,0,0,1,1.911-5.047,6.652,6.652,0,0,1,4.9-2.009A6.685,6.685,0,0,1,198.3-17.2a6.793,6.793,0,0,1,1.96,5.047,6.87,6.87,0,0,1-1.96,5.047A6.685,6.685,0,0,1,193.354-5.1,6.652,6.652,0,0,1,188.454-7.105Zm46.991-5.733a12.1,12.1,0,0,0-3.332-8.722,11.261,11.261,0,0,0-8.526-3.43,12.689,12.689,0,0,0-9.114,3.626,12.291,12.291,0,0,0-3.675,9.212,12.554,12.554,0,0,0,3.626,9.261A12.162,12.162,0,0,0,223.293.686c5.341,0,9.114-2.352,11.417-7.1L230.1-9.065c-1.519,2.989-3.724,4.459-6.713,4.459a6.392,6.392,0,0,1-6.664-6.076h18.718Zm-12.054-7.448a6.008,6.008,0,0,1,6.37,5.1H216.727A7.087,7.087,0,0,1,223.391-20.286ZM259.945,10V-2.989A9.6,9.6,0,0,0,267.834.686a11.108,11.108,0,0,0,8.33-3.528,13.027,13.027,0,0,0,3.381-9.31c0-3.92-1.078-7.056-3.234-9.359a10.326,10.326,0,0,0-7.938-3.479,10.575,10.575,0,0,0-8.428,4.165V-24.3h-6.174V10Zm11.368-27.2a6.87,6.87,0,0,1,1.96,5.047,6.948,6.948,0,0,1-1.96,5.047,6.5,6.5,0,0,1-4.9,2.009,6.652,6.652,0,0,1-4.9-2.009,6.948,6.948,0,0,1-1.96-5.047,6.87,6.87,0,0,1,1.96-5.047,6.652,6.652,0,0,1,4.9-2.009A6.5,6.5,0,0,1,271.313-17.2Zm34.2-4.361a13.631,13.631,0,0,0-9.359-3.43,13.594,13.594,0,0,0-9.31,3.43c-2.6,2.254-3.92,5.39-3.92,9.408a11.986,11.986,0,0,0,3.92,9.457,13.789,13.789,0,0,0,9.31,3.381,13.826,13.826,0,0,0,9.359-3.381,11.863,11.863,0,0,0,3.969-9.457Q309.484-18.179,305.515-21.56ZM291.256-7.007a6.828,6.828,0,0,1-2.058-5.145,6.646,6.646,0,0,1,2.058-5.1,6.767,6.767,0,0,1,4.9-1.96,6.879,6.879,0,0,1,4.949,1.96,6.514,6.514,0,0,1,2.107,5.1,6.69,6.69,0,0,1-2.107,5.145A7.044,7.044,0,0,1,296.156-5.1,6.927,6.927,0,0,1,291.256-7.007ZM320.411,0V-34.3h-6.174V0ZM347.8-21.56a13.631,13.631,0,0,0-9.359-3.43,13.594,13.594,0,0,0-9.31,3.43c-2.6,2.254-3.92,5.39-3.92,9.408a11.986,11.986,0,0,0,3.92,9.457,13.789,13.789,0,0,0,9.31,3.381A13.826,13.826,0,0,0,347.8-2.695a11.863,11.863,0,0,0,3.969-9.457Q351.771-18.179,347.8-21.56ZM333.543-7.007a6.828,6.828,0,0,1-2.058-5.145,6.646,6.646,0,0,1,2.058-5.1,6.767,6.767,0,0,1,4.9-1.96,6.879,6.879,0,0,1,4.949,1.96,6.514,6.514,0,0,1,2.107,5.1,6.69,6.69,0,0,1-2.107,5.145A7.044,7.044,0,0,1,338.443-5.1,6.927,6.927,0,0,1,333.543-7.007ZM361.62-18.326c0-1.421,1.225-2.156,3.675-2.156,2.5,0,4.361,1.421,5.488,4.263l4.459-2.646c-2.009-4.165-4.9-6.125-10.045-6.125a10.7,10.7,0,0,0-6.419,1.911,5.91,5.91,0,0,0-2.646,5.145c0,4.116,3.381,6.615,8.477,7.6C368.333-9.6,369.8-8.82,369.8-7.2s-1.813,2.7-3.822,2.7c-2.989,0-5.145-2.058-6.272-5.243L354.76-6.615a11.4,11.4,0,0,0,11.123,7.3,10.184,10.184,0,0,0,6.958-2.3A7.344,7.344,0,0,0,375.487-7.4c0-4.116-2.45-6.272-8.134-7.5C363.531-15.631,361.62-16.807,361.62-18.326Z" transform="translate(145.243 81.492)" fill="#273658"/>
    <g id="Grupo_5419" data-name="Grupo 5419" transform="translate(37 16.828)">
      <g id="Grupo_5418" data-name="Grupo 5418" transform="translate(0 0)">
        <path id="Building_ícones_-_Download_Gratuito_em_PNG_e_SVG-14" data-name="Building ícones - Download Gratuito em PNG e SVG-14" d="M52.416,0a15.439,15.439,0,0,0-9.138,3c-1.928,1.285-3,2.139-6.286,2.139v5.142a15.439,15.439,0,0,0,9.138-3c1.928-1.285,3-2.139,6.286-2.139ZM36.951,15.425a2.571,2.571,0,0,0-1.777.753L22.32,29.032a2.571,2.571,0,0,0-.753,1.818v5.142h-18A2.571,2.571,0,0,0,1,38.562V71.982H72.982V38.562a2.571,2.571,0,0,0-2.571-2.571h-18V30.85a2.571,2.571,0,0,0-.753-1.817L38.809,16.178A2.571,2.571,0,0,0,36.951,15.425Zm.04,6.206L47.274,31.914V66.841H42.133V56.558a5.142,5.142,0,1,0-10.283,0V66.841H26.708V31.914Zm0,14.36a5.142,5.142,0,1,0,5.142,5.142A5.142,5.142,0,0,0,36.991,35.991ZM6.142,41.133H21.566V66.841H6.142Zm46.274,0H67.841V66.841H52.416ZM11.283,46.274v5.142h5.142V46.274Zm46.274,0v5.142H62.7V46.274ZM11.283,56.558V61.7h5.142V56.558Zm46.274,0V61.7H62.7V56.558Z" transform="translate(-1)" fill="#273658"/>
      </g>
    </g>
  </g>
</svg>
